<svg xmlns="http://www.w3.org/2000/svg" viewBox="0 0 120 120" fill="none">
  <!-- Log layers - body of cabin -->
  <rect x="18" y="78" width="84" height="12" rx="6" fill="#6B3F1E"/>
  <rect x="18" y="67" width="84" height="12" rx="6" fill="#8B5E3C"/>
  <rect x="18" y="56" width="84" height="12" rx="6" fill="#6B3F1E"/>
  <rect x="18" y="45" width="84" height="12" rx="6" fill="#8B5E3C"/>
  <!-- Log ends (circles on sides) -->
  <circle cx="18" cy="84" r="6" fill="#5A3418"/>
  <circle cx="18" cy="73" r="6" fill="#7A5230"/>
  <circle cx="18" cy="62" r="6" fill="#5A3418"/>
  <circle cx="18" cy="51" r="6" fill="#7A5230"/>
  <circle cx="102" cy="84" r="6" fill="#5A3418"/>
  <circle cx="102" cy="73" r="6" fill="#7A5230"/>
  <circle cx="102" cy="62" r="6" fill="#5A3418"/>
  <circle cx="102" cy="51" r="6" fill="#7A5230"/>
  <!-- Red roof -->
  <polygon points="10,47 60,10 110,47" fill="#C0392B"/>
  <!-- Door -->
  <rect x="50" y="66" width="20" height="24" rx="3" fill="#4A3728"/>
  <circle cx="66" cy="79" r="2" fill="#8B5E3C"/>
  <!-- Left window - server rack style with status LEDs -->
  <rect x="25" y="55" width="14" height="12" rx="2" fill="#1A2B4A"/>
  <rect x="25" y="55" width="14" height="12" rx="2" stroke="#C0392B" stroke-width="1.5" fill="none"/>
  <circle cx="30" cy="59" r="1.5" fill="#2ECC71"/>
  <circle cx="34" cy="59" r="1.5" fill="#2ECC71"/>
  <circle cx="30" cy="63" r="1.5" fill="#F39C12"/>
  <circle cx="34" cy="63" r="1.5" fill="#2ECC71"/>
  <!-- Right window - server rack style with status LEDs -->
  <rect x="81" y="55" width="14" height="12" rx="2" fill="#1A2B4A"/>
  <rect x="81" y="55" width="14" height="12" rx="2" stroke="#C0392B" stroke-width="1.5" fill="none"/>
  <circle cx="86" cy="59" r="1.5" fill="#2ECC71"/>
  <circle cx="90" cy="59" r="1.5" fill="#2ECC71"/>
  <circle cx="86" cy="63" r="1.5" fill="#2ECC71"/>
  <circle cx="90" cy="63" r="1.5" fill="#F39C12"/>
  <!-- Chimney -->
  <rect x="70" y="12" width="10" height="16" rx="2" fill="#4A5568"/>
  <rect x="68" y="10" width="14" height="5" rx="2" fill="#374151"/>
</svg>
